<?xml version="1.0" encoding="UTF-8"?>
<svg version="1.1" xmlns="http://www.w3.org/2000/svg" width="320" height="320">
<path d="M0 0 C11.27735503 4.89779974 21.35403075 17.21411115 30.1875 25.625 C30.79870193 26.20559677 31.40990387 26.78619354 32.03962708 27.38438416 C59.42659586 53.54502677 59.42659586 53.54502677 60.00512695 71.95849609 C59.78640855 79.55304412 58.7222328 86.59272689 57 94 C63.27 87.73 69.54 81.46 76 75 C78.31 76.98 80.62 78.96 83 81 C84.75317909 82.36515683 86.51692368 83.71689256 88.29272461 85.05249023 C109.56213733 101.41969651 132.74307122 119.72151671 136.421875 147.84375 C138.84328745 169.62662076 138.42731637 195.26885893 124.30859375 213.09375 C116.79676495 221.78176163 107.86065026 229.12631968 98 235 C97.34 235 96.68 235 96 235 C96.02744293 233.93750031 96.05488586 232.87500061 96.0831604 231.78030396 C96.33169681 221.6907925 96.48250878 211.6037414 96.54146767 201.51129341 C96.57481169 196.32379173 96.64069167 191.14125774 96.78515625 185.95556641 C98.68578266 160.02793598 98.68578266 160.02793598 88.44638062 137.48336792 C84.86081209 134.24153573 81.1913001 131.41251986 77 129 C75.44306342 130.26727396 73.90444758 131.55932439 72.42059326 132.91143799 C70.52892706 134.54362553 68.70247557 135.89535141 66.65216064 137.29705811 C61.75858979 140.95349598 57.75323635 144.66802724 56.36546326 150.80690002 C55.58046429 158.62931831 56.11129994 166.45035696 56.5666914 174.28023243 C56.74519684 177.75567877 56.81964088 181.2329341 56.89752197 184.71185303 C57.17844327 196.5185758 57.58556713 208.31577032 58.20263672 220.10986328 C58.64469562 228.74360039 58.9236412 237.37049875 58.984375 246.015625 C58.99303935 247.05815209 58.99303935 247.05815209 59.00187874 248.12174034 C59.07861362 266.11200248 57.0409563 279.88948724 44.16998291 293.28704834 C26.70812316 310 26.70812316 310 21 310 C21.01715781 308.18500598 21.01715781 308.18500598 21.03466225 306.33334541 C21.3027796 277.54239889 21.47692492 248.75189287 21.53699366 219.9597956 C21.54448515 216.40792842 21.55276154 212.85606348 21.56152344 209.30419922 C21.56325441 208.59715449 21.56498538 207.89010976 21.56676881 207.16163944 C21.59658165 195.74679106 21.68982177 184.3333116 21.80694492 172.91906323 C21.92590062 161.18700803 21.97567105 149.45609357 21.96262586 137.72343624 C21.95825511 131.14078056 21.98497184 124.56168935 22.08833694 117.97977066 C22.18482436 111.77131646 22.19521395 105.56840365 22.14233971 99.35948181 C22.13770971 97.09318168 22.16332806 94.82656379 22.22307396 92.5610466 C22.51701139 80.73119583 21.80742298 72.8135195 13.41152799 63.94793022 C9.75508914 60.4407047 5.98189198 57.13248193 2 54 C-6.06745316 57.76126467 -13.26443485 64.50507968 -18 72 C-20.7147877 79.56047626 -20.0892207 87.75328711 -19.90820312 95.6640625 C-19.91356244 98.01124595 -19.92597257 100.35842215 -19.94483948 102.70553589 C-19.97596709 109.03253643 -19.90934318 115.35506605 -19.8242321 121.681427 C-19.75932904 127.63623025 -19.76870487 133.59055141 -19.77737623 139.54563284 C-19.79214811 151.32827136 -19.73599801 163.10943457 -19.63427734 174.89160156 C-19.53571392 186.32591547 -19.47115551 197.75960212 -19.45166016 209.19433594 C-19.45044358 209.90103731 -19.449227 210.60773868 -19.44797355 211.33585525 C-19.44207693 214.88173335 -19.43684178 218.42761207 -19.43193531 221.97349167 C-19.39047991 251.316372 -19.23232041 280.65801114 -19 310 C-33.02697512 303.18055938 -47.43450928 291.36572293 -54 277 C-56.79625254 267.05523432 -56.72207776 256.67528009 -56.578125 246.421875 C-56.56538386 245.38318299 -56.56538386 245.38318299 -56.55238533 244.32350731 C-56.41878667 234.93067909 -55.99121743 225.55846583 -55.48468018 216.17938232 C-54.89427837 205.20267894 -54.45523957 194.22184786 -54.20406604 183.23215222 C-54.11953605 179.79836163 -53.99129912 176.37846811 -53.75345612 172.95162201 C-52.39958812 156.42939609 -52.39958812 156.42939609 -59.30065918 141.98059082 C-63.81067382 137.17031201 -68.71033546 132.92989502 -74 129 C-74.64745367 129.56095934 -74.64745367 129.56095934 -75.30798721 130.13325119 C-78.2416902 132.66325869 -81.17652711 135.14678751 -84.25970459 137.49298096 C-89.09204799 141.41213663 -92.96898524 145.14541086 -94.08410645 151.46520996 C-94.62860898 156.78311608 -94.50897002 162.08522874 -94.390625 167.421875 C-94.39068143 169.37771299 -94.39603927 171.3335573 -94.40643311 173.28936768 C-94.41953371 178.40002291 -94.36134119 183.5073913 -94.28753662 188.61743164 C-94.22487888 193.84644906 -94.23068081 199.07536069 -94.23046875 204.3046875 C-94.22009069 214.53748872 -94.1342846 224.76812631 -94 235 C-109.86163138 227.25882542 -125.28057836 214.32445819 -131.2958374 197.34143066 C-137.34811735 176.70781089 -139.38039576 147.25385634 -128.80625153 127.80427551 C-115.69448645 106.65685337 -94.48195083 90.0241946 -75 75 C-70.1088516 79.06838173 -65.52649247 83.34438078 -61.0625 87.875 C-60.47404297 88.46796875 -59.88558594 89.0609375 -59.27929688 89.671875 C-57.85052326 91.11226466 -56.42491868 92.5557967 -55 94 C-55.25249512 93.07106934 -55.50499023 92.14213867 -55.76513672 91.18505859 C-58.74920102 78.85464055 -59.59989504 65.67785873 -54 54 C-46.81052665 42.84724338 -36.50605596 33.56982735 -26.9375 24.5 C-26.2926339 23.8885186 -25.64776779 23.2770372 -24.98336029 22.64702606 C-16.80798076 14.9247084 -8.47768653 7.38884595 0 0 Z " fill="#135866" transform="translate(159,5)"/>
<path d="M0 0 C1.37973999 1.21248413 1.37973999 1.21248413 2.78735352 2.44946289 C5.8737801 5.10110666 9.05347457 7.5903656 12.29272461 10.05249023 C33.56213733 26.41969651 56.74307122 44.72151671 60.421875 72.84375 C62.84328745 94.62662076 62.42731637 120.26885893 48.30859375 138.09375 C40.79676495 146.78176163 31.86065026 154.12631968 22 160 C21.34 160 20.68 160 20 160 C20.02966354 158.93972092 20.05932709 157.87944183 20.08988953 156.78703308 C20.35897658 146.71263294 20.52459632 136.64091815 20.59327984 126.56310558 C20.63179241 121.38317971 20.70459428 116.20883101 20.8605957 111.03100586 C22.87735524 87.12408912 22.87735524 87.12408912 14.6965332 65.90942383 C12.1684308 63.55560048 9.55355988 61.47046205 6.8008728 59.38632202 C1.8667924 55.50156531 -0.55173787 52.98233705 -1.5612793 46.63989258 C-2.08395393 39.49992988 -1.67306377 32.44262058 -1.1875 25.3125 C-1.09195586 22.84603376 -1.00530577 20.37920627 -0.92773438 17.91210938 C-0.72069229 11.93337502 -0.40498404 5.96842757 0 0 Z " fill="#0D4A5F" transform="translate(235,80)"/>
<path d="M0 0 C0.4883651 7.19725086 0.81699574 14.39015455 1.04370117 21.6003418 C1.13831215 24.04271857 1.26728276 26.48404692 1.43334961 28.92260742 C2.80136088 49.55289499 2.80136088 49.55289499 -1.89901733 55.33676147 C-4.3528967 57.46688607 -6.87825047 59.44490692 -9.46875 61.40625 C-15.80942194 66.44512693 -19.32851166 71.00049148 -20.41144085 79.05143261 C-21.48704393 90.69613552 -21.11986333 102.42568399 -20.76818848 114.0980835 C-20.63284289 119.28022238 -20.60759362 124.46286967 -20.57226562 129.64648438 C-20.48746212 139.76770339 -20.28305795 149.88251601 -20 160 C-35.86163138 152.25882542 -51.28057836 139.32445819 -57.2958374 122.34143066 C-63.35137826 101.69672835 -65.36476417 72.27157633 -54.8094635 52.80427551 C-47.35775475 40.75047265 -15.49756024 0 0 0 Z " fill="#1D6E71" transform="translate(85,80)"/>
<path d="M0 0 C0.4883651 7.19725086 0.81699574 14.39015455 1.04370117 21.6003418 C1.13831215 24.04271857 1.26728276 26.48404692 1.43334961 28.92260742 C2.77967091 49.2257995 2.77967091 49.2257995 -1.89901733 55.57846069 C-4.3261488 57.9796823 -6.83099161 60.17644984 -9.46875 62.34375 C-15.46686973 67.29956475 -19.37364643 70.9982366 -20.65698242 78.8972168 C-21.3073326 86.67494409 -21.02666337 94.40109361 -20.6875 102.1875 C-20.62947317 104.89501255 -20.60053619 107.60258108 -20.57226562 110.31054688 C-20.48185156 116.87900151 -20.28443095 123.43723009 -20 130 C-35.51311158 122.64368977 -52.30246932 105.88078783 -58.21540833 89.74987793 C-61.77367573 77.61232636 -61.10278739 65.16535573 -55 54 C-47.39179386 42.71948712 -14.12819384 0 0 0 Z " fill="#1D6E71" transform="translate(160,5)"/>
</svg>
